<svg width="12" height="12" viewBox="0 0 12 12" fill="none" xmlns="http://www.w3.org/2000/svg">
<path fill-rule="evenodd" clip-rule="evenodd" d="M5.4 3V1.65H10.35V7.35H8.25V4.5C8.25 3.67157 7.57843 3 6.75 3H5.4ZM3.75 3V1.5C3.75 0.671573 4.42157 0 5.25 0H10.5C11.3284 0 12 0.671573 12 1.5V7.5C12 8.32843 11.3284 9 10.5 9H8.25V10.5C8.25 11.3284 7.57843 12 6.75 12H1.5C0.671573 12 0 11.3284 0 10.5V4.5C0 3.67157 0.671573 3 1.5 3H3.75ZM6.6 9V10.35H1.65V4.65H3.75V7.5C3.75 8.32843 4.42157 9 5.25 9H6.6ZM6.6 7.35H5.4V4.65H6.6V7.35Z" fill="#E3F2F4"/>
</svg>
